<?xml version="1.0" encoding="utf-8"?>
<!DOCTYPE svg PUBLIC "-//W3C//DTD SVG 1.1//EN" "http://www.w3.org/Graphics/SVG/1.1/DTD/svg11.dtd">
<svg version="1.1" xmlns="http://www.w3.org/2000/svg" xmlns:xlink="http://www.w3.org/1999/xlink" x="0px" y="0px" viewBox="0 0 1000 1000" enable-background="new 0 0 1000 1000" xml:space="preserve">
<g><g transform="translate(0.000000,512.000000) scale(0.100000,-0.100000)"><path d="M4780.5,5004.2c-222.5-44.1-439.3-197.6-583.1-416.2c-280-422-2877.2-5301.7-3619.5-6796c-295.4-594.6-399-861.2-450.8-1164.3C6.2-4059,292-4538.6,942.3-4741.9l143.9-44.1h3903.4H8893l143.9,44.1c345.3,109.3,636.8,333.8,755.8,587c80.5,166.9,107.4,293.5,107.4,491c0,360.6-94,644.5-460.4,1379.2C8760.6-919,6301.6,3717.1,5847,4486.3C5595.7,4912.1,5225.5,5092.4,4780.5,5004.2z M5200.6,4344.3c76.7-72.9,51.8-30.7,734.6-1304.3c2163.7-4043.4,3126.6-5898.3,3232.1-6224.4c111.2-337.6,122.8-552.4,42.2-707.8c-46-86.3-157.3-203.3-235.9-247.4c-57.5-30.7-299.2-32.6-3926.4-38.4c-2633.6-1.9-3895.8,1.9-3962.9,15.4c-124.7,26.9-268.5,142-339.5,274.3c-53.7,95.9-55.6,109.3-46,291.5c13.4,295.4,78.6,470,473.8,1246.8c688.6,1360,3414.3,6466.1,3527.5,6608c99.7,124.7,166.9,157.3,312.7,149.6C5123.8,4401.9,5148.8,4392.3,5200.6,4344.3z"/><path d="M4843.8,2245.9c-90.2-23-255.1-118.9-306.9-180.3c-26.9-32.6-71-101.7-99.7-155.4l-51.8-97.8l-5.7-1505.7c-5.8-1678.4-9.6-1613.1,126.6-1793.5c46-61.4,113.2-117,195.7-161.1c115.1-63.3,136.2-69.1,287.7-69.1c149.6,0,172.6,5.7,283.9,65.2c134.3,72.9,191.8,132.3,268.5,278.1l51.8,97.8V268.3v1544.1l-69.1,124.7C5388.5,2186.4,5114.2,2309.2,4843.8,2245.9z"/><path d="M4797.7-2373c-512.1-178.4-569.7-855.5-95.9-1116.4c115.1-63.3,136.2-69,287.7-69c140,0,176.5,7.7,260.9,51.8c145.8,76.7,205.2,134.3,278.1,268.6c59.5,111.3,65.2,134.3,65.2,283.9c0,151.5-5.8,172.6-69.1,287.7C5378.9-2401.8,5072-2277.1,4797.7-2373z"/></g></g>
</svg>